<svg width="16" height="17" viewBox="0 0 16 17" fill="none" xmlns="http://www.w3.org/2000/svg">
<path d="M0.5 7.2336C0.5 4.6752 0.5 3.396 0.8024 2.9656C1.104 2.536 2.3064 2.124 4.712 1.3008L5.1704 1.144C6.424 0.7144 7.0504 0.5 7.7 0.5C8.3496 0.5 8.976 0.7144 10.2296 1.144L10.688 1.3008C13.0936 2.124 14.296 2.536 14.5976 2.9656C14.9 3.396 14.9 4.676 14.9 7.2336V8.4928C14.9 13.0032 11.5088 15.1928 9.3808 16.1216C8.804 16.3736 8.516 16.5 7.7 16.5C6.884 16.5 6.596 16.3736 6.0192 16.1216C3.8912 15.192 0.5 13.004 0.5 8.4928V7.2336Z" stroke="#FEFEFE"/>
<path d="M5.7002 8.81999L6.8434 10.1L9.7002 6.89999" stroke="#FEFEFE" stroke-linecap="round" stroke-linejoin="round"/>
</svg>
