<svg width="20" height="17" viewBox="0 0 20 17" fill="none" xmlns="http://www.w3.org/2000/svg">
<path d="M10.4158 1.87832C11.2983 2.76085 11.7941 3.9578 11.7941 5.20588C11.7941 6.45396 11.2983 7.65092 10.4158 8.53344C9.53324 9.41597 8.33628 9.91177 7.08821 9.91177C5.84013 9.91177 4.64317 9.41597 3.76065 8.53344C2.87812 7.65092 2.38232 6.45396 2.38232 5.20588C2.38232 3.9578 2.87812 2.76085 3.76065 1.87832C4.64317 0.995797 5.84013 0.5 7.08821 0.5C8.33628 0.5 9.53324 0.995797 10.4158 1.87832Z" stroke="#FEFEFE" stroke-linecap="round" stroke-linejoin="round"/>
<path d="M13.6765 16.5C13.6765 14.7527 12.9824 13.077 11.7468 11.8414C10.5113 10.6059 8.83554 9.91178 7.08824 9.91178C5.34093 9.91178 3.66518 10.6059 2.42965 11.8414C1.19412 13.077 0.5 14.7527 0.5 16.5M16.5 5.67648V11.3235M19.3235 8.50001H13.6765" stroke="#FEFEFE" stroke-linecap="round" stroke-linejoin="round"/>
</svg>
